<?xml version="1.0" encoding="utf-8"?>
<!-- Generator: Adobe Illustrator 27.5.0, SVG Export Plug-In . SVG Version: 6.00 Build 0)  -->
<svg version="1.1" id="Layer_1" xmlns="http://www.w3.org/2000/svg" xmlns:xlink="http://www.w3.org/1999/xlink" x="0px" y="0px"
	 viewBox="0 0 423 79.9" style="enable-background:new 0 0 423 79.9;" xml:space="preserve">
<style type="text/css">
	.st0{fill:#FFFFFF;}
</style>
<rect width="423" height="79.9"/>
<g>
	<path class="st0" d="M241.9,29.3c0,0.3-0.1,0.6-0.2,0.8c-0.3,0.4-0.7,0.8-1.1,0.9c-4.5,2-7.6,6-11.6,8.7c-2,1.3-3.1,3.1-2.7,5.7
		c0.4,2.4-0.6,5,0.9,7.3c0.5,0.8,0,1.4-0.7,1.9c-1.1,0.9-2.1,0.3-3.1-0.1c-1.2-0.5-0.6-1.4-0.5-2.2c0.2-3.2,0.4-6.5,0.4-9.7
		c0-1.7-2.8-4-3.9-5.2c-2.3-2.6-4.8-5-7.2-7.4c-0.9-0.9-1.5-1.8-0.8-3c0.3-0.6,0.8-1,1.3-1.4c0.3-0.2,0.5-0.5,0.9-0.6
		c0.4-0.1,0.9,0,1.3,0.1c2,0.9,3.5,2.6,5.1,4c0.8,0.7,1.4,1.2,2.3,1.7c1,0.5,1.5,1.2,2.4,2c0.6,0.5,0.9,0,1.5-0.4
		c2.9-2.3,5.7-4.6,8.7-6.7c1.2-0.8,2.3-2.1,4-1.1c1,0.5,1.7,1.3,2.2,2.3C241.4,27.4,241.9,28.5,241.9,29.3z M234.9,27.1
		c-0.3,0.2-0.6,0.3-0.8,0.5c-1.6,0.9-3,2.2-4.4,3.5c-0.7,0.6-1.5,1.2-2.3,1.8c-0.5,0.4-1.6,1.7-2.1,1.6c-0.6,0-1.8-1.4-2.3-1.7
		c-0.7-0.5-1.3-1-2-1.5c-1.2-1.1-2.6-2-3.8-3.1c-0.9-0.8-1.7-2-3-2.2c-0.6-0.1-1.9,0.5-1.5,1.3c0.4,0.7,1.2,0,1.7,0.2
		c0.4,0.2,0.7,0.5,1,0.9c1.3,1.5,2.8,2.6,4.3,3.8c0.5,0.4,0.8,1,1.4,1.4c1,0.8,3.5,2.7,4.9,2.4c0.5-0.1,0.9-0.4,1.3-0.7
		c0.9-0.7,1.8-1.3,2.6-2c0.8-0.8,1.6-1.8,2.5-2.4c0.7-0.6,1.5-1.2,2.1-1.9c0.5-0.6,1-1,1.8-1.2c0.9-0.2,0.9-0.9,0.1-1
		C236,26.6,235.4,26.9,234.9,27.1z M238.6,26.4c-0.5-0.3-1.1-0.5-1.3-0.1c-0.2,0.5,0.8,0.7,1,0.9c1,0.9,1.7,2.1,0.7,3.4
		c1.7-0.2,1.5-2.5,0.6-3.5C239.5,27,239,26.6,238.6,26.4z"/>
	<path class="st0" d="M231.7,41.1c0.2,0.1-0.2,0.6-0.3,0.7c-0.4,0.5-0.8,0.9-0.9,1.5c-0.2,0.6-0.2,1.3-0.2,2c0.1,2,0.3,3.9-0.1,5.8
		c-0.2,0.7-0.1,1.5-0.2,2.2c-0.1,0.6-0.5,1.2-0.8,1.7c-0.3,0.3-0.6,0.6-1,0.7c-0.2,0-0.4,0-0.5-0.2c0-0.1,0-0.2,0.1-0.3
		c0.1-0.1,0.2-0.1,0.2-0.2c0.3-0.2,0.7-0.3,0.9-0.6c0.5-0.5,0.5-1,0.5-1.6c0-0.7,0-1.5,0-2.2c0-1.4,0-2.8,0-4.3
		c0-1.2-0.7-2.7-0.2-3.6c0.3-0.5,0.8-0.9,1.3-1.2c0.2-0.1,0.5-0.3,0.8-0.4C231.2,41.2,231.5,41,231.7,41.1z"/>
	<path class="st0" d="M220.6,43.3c0.1-0.1,0.6,0.2,0.7,0.3c0.3,0.5-0.1,1.1-0.1,1.6c0,0.7,0.1,1.3,0.2,2c0.1,0.8,0.1,1.7-0.3,2.4
		C220.9,47.5,220.7,45.4,220.6,43.3C220.6,43.3,220.6,43.3,220.6,43.3z"/>
	<path class="st0" d="M240.6,33.1c0.3-0.2,0.5-0.4,0.8-0.6c0.1-0.1,0.2-0.1,0.3-0.2c0,0,0.1-0.3,0.1-0.3c-0.3,0.1-0.4,0.4-0.6,0.6
		c-0.2,0.2-0.4,0.3-0.7,0.4L240.6,33.1z"/>
	<path class="st0" d="M243.3,30.5c-0.1,0.3-0.3,0.6-0.5,0.8c-0.1,0.1-0.3,0.2-0.5,0.2c0.1-0.3,0.4-0.5,0.6-0.8
		c0.2-0.4,0.2-0.9,0.2-1.3c0.1,0,0.2,0.1,0.2,0.2s0,0.2,0,0.3C243.4,30.1,243.4,30.3,243.3,30.5z"/>
	<path class="st0" d="M209.8,32.1c0,0-0.1,0.1-0.1,0.1L209.8,32.1z"/>
	<path class="st0" d="M210.4,32.7c-0.2-0.2-0.3-0.4-0.5-0.6c-0.3-0.4-0.5-0.9-0.7-1.3c-0.4-0.8-0.5-1.8-0.2-2.7
		c0.1-0.1,0.1-0.3,0.1-0.5c0-0.2,0-0.3-0.2-0.4c-0.2-0.1-0.4,0-0.5,0.2s-0.2,0.4-0.2,0.6c-0.1,0.6-0.1,1.2-0.1,1.8
		c0.1,1,0.7,1.8,1.4,2.5c0.5,0.4,0.8,1,1.4,1.3C210.9,33.3,210.7,33,210.4,32.7z"/>
	<path class="st0" d="M239.8,33.8c0.2-0.3,0.5-0.5,0.7-0.8l-0.1-0.1c-0.2,0.2-0.5,0.5-0.8,0.8L239.8,33.8z"/>
	<path class="st0" d="M211.2,33.7c0.3,0.2,0.5,0.5,0.8,0.8l0.1-0.1C211.8,34.1,211.5,33.9,211.2,33.7L211.2,33.7z"/>
	<path class="st0" d="M239.1,34.6c0.3-0.2,0.5-0.5,0.8-0.7l-0.1-0.1c-0.2,0.2-0.5,0.5-0.8,0.7L239.1,34.6z"/>
	<path class="st0" d="M212.8,35.1c-0.2-0.2-0.5-0.5-0.7-0.8l-0.1,0.1C212.2,34.7,212.5,35,212.8,35.1L212.8,35.1z"/>
	<path class="st0" d="M215,37.4c-0.2-0.2-0.5-0.5-0.7-0.7l-0.1,0.1c0.2,0.2,0.5,0.5,0.7,0.7L215,37.4z"/>
	<path class="st0" d="M214.3,36.7c-0.2-0.2-0.5-0.5-0.8-0.8l-0.1,0.1C213.7,36.3,214,36.5,214.3,36.7L214.3,36.7z"/>
	<path class="st0" d="M214.9,37.5c0.3,0.2,0.5,0.5,0.8,0.7l0.1-0.1c-0.3-0.2-0.5-0.5-0.8-0.7L214.9,37.5z"/>
	<path class="st0" d="M216.5,38.9c-0.2-0.2-0.5-0.5-0.7-0.8l-0.1,0.1C215.9,38.5,216.2,38.7,216.5,38.9L216.5,38.9z"/>
	<path class="st0" d="M237.4,36c-0.7,0.7-1.6,1.2-2.4,1.9c0.4,0,0.7-0.3,1-0.6c0.5-0.5,1-0.7,1.5-1.2L237.4,36z"/>
	<path class="st0" d="M217.3,39.6c-0.2-0.2-0.5-0.5-0.8-0.8l-0.1,0.1c0.2,0.2,0.5,0.5,0.8,0.8L217.3,39.6z"/>
	<path class="st0" d="M218,40.4c-0.2-0.3-0.5-0.5-0.7-0.8l-0.1,0.1C217.4,40,217.7,40.3,218,40.4L218,40.4z"/>
	<path class="st0" d="M217.9,40.5c0.2,0.2,0.5,0.5,0.8,0.8l0.1-0.1c-0.2-0.2-0.5-0.5-0.8-0.8L217.9,40.5z"/>
	<path class="st0" d="M237.6,36.1c0.2-0.2,0.5-0.5,0.7-0.8l-0.1-0.1c-0.2,0.3-0.5,0.5-0.7,0.8L237.6,36.1z"/>
	<path class="st0" d="M219.3,41.9c0,0,0.1,0.1,0.1,0.1l0.1-0.1c-0.3-0.2-0.5-0.5-0.8-0.7l-0.1,0.1c0.5,0.5,0.9,1,1.3,1.5
		c0.1,0.1,0.2,0.2,0.4,0.2c0.1-0.1,0.1-0.2,0-0.3c-0.1-0.1-0.2-0.1-0.4-0.2c-0.2-0.1-0.3-0.4-0.5-0.5l-0.1,0.1
		c0.2,0.3,0.5,0.5,0.8,0.8l0.1-0.1c-0.1-0.1-0.1-0.1-0.2-0.2"/>
	<path class="st0" d="M213.6,35.9c-0.3-0.3-0.5-0.5-0.8-0.8l-0.1,0.1c0.3,0.3,0.5,0.5,0.8,0.8L213.6,35.9z"/>
	<path class="st0" d="M238.3,35.3c0.3-0.3,0.5-0.5,0.8-0.8l-0.1-0.1c-0.3,0.3-0.5,0.5-0.8,0.8L238.3,35.3z"/>
	<path class="st0" d="M232.9,39.6c-0.2,0.2-0.8,0.7-0.8,1c0.3-0.1,0.5-0.5,0.8-0.7c0.3-0.3,0.6-0.6,0.8-0.9c0.1-0.1,0.2-0.3,0.2-0.4
		C233.5,38.9,233.2,39.3,232.9,39.6z"/>
</g>
<g>
	<path class="st0" d="M382.7,50.5c-1.6,0-3.2,0.1-4.8,0.1c-2.2,0.1-4.5,0.2-6.7,0.1c-1.9,0-2.9-0.8-3-2.1c-0.1-1.1-0.8-8.7,0.6-8.6
		c0.5,0,0.7,0.9,0.7,1.3c0.1,1.2,0.2,2.5,0.5,3.6c0.3,0.9,0.7,1.8,1.6,2.1c1.2,0.5,2.6,0.6,3.9,0.7c1.4,0,2.7-0.2,4.1-0.3
		c0.2,0,0.5-0.1,0.7-0.1c-0.3-0.1-0.5-0.2-0.8-0.2c-2.3-0.4-5.3,1-7.3-0.7c-0.9-0.8-0.8-1.9-0.8-3c0-0.2,0-0.5,0.1-0.7
		c0.2-0.3,0.6-0.3,0.9-0.3c1.2-0.1,2.7-0.3,3.9-0.1c1.1,0.2,2,0.3,3-0.4c0.6-0.4,1.1-1,1.3-1.7c0-0.1,0-0.1,0.1-0.2
		c0.1-0.5,0.1-2.1-0.7-1.9c0.7-0.1-0.3,2.8-0.8,3.1c-0.3,0.2-0.8,0.1-1-0.2c-0.4-1.2,2.7-2.6,1.1-3.9c-0.7-0.6-1.7-1.1-2.5-1.1
		c-2.3-0.1-4.6,0-7,0.1c-1.2,0.1-1.7-0.5-2.2-1.5c-0.6-1.2-0.7-2.4,0.1-3.5c0.2-0.4,0.9-1.1,1.4-1c1.2,0.2-0.2,2.1,1,2.7
		c0.4,0.2,0.8,0.2,1.2,0.2c2.9,0.1,5.7-0.3,8.6-0.1c0.2,0,0.4,0,0.6-0.1c0.2-0.1,0.3-0.4,0.1-0.5c-0.1-0.1-0.3-0.1-0.4-0.2
		c-0.2-0.2-0.1-0.5,0.1-0.7c0.8-0.5,2.1,0,3-0.4c0.8-0.3,1.4-0.8,1.6-1.6c0.5-1.8-0.6-3.9-2.5-4c-1.6-0.1-3.3,0.2-4.8,0
		c-3.8-0.5-7.5,1.6-11.4,0.6c-1.3-0.3-2.3,1.4-2,2.8c0.3,1.3,0.6,2.6,0.6,4c0.2,4.7,0.3,9.4,0.3,14.2c0,2.4-0.3,4.8-0.2,7.2
		c0.2,2.7,1.6,3.3,4,3.5c4.4,0.4,8.9-0.2,13.3-0.3c0.7,0,1.4-0.3,2.1-0.7c1.5-0.9,1.6-1.6,1.1-4.1C385.1,50.9,384,50.5,382.7,50.5z
		 M372.3,40.2c0.4,0,0.8,0,1.2-0.1c1.2-0.2,3-0.4,4,0.6c-0.6,0.7-1.9,0.6-2.7,0.6c-0.7,0-3.9,0.6-4.3,0.2c-0.6-0.5,0.8-1.1,1.2-1.2
		C371.9,40.2,372.1,40.2,372.3,40.2z M372.3,29.8c0.7-0.1,1.4-0.2,2.1-0.3c1.2,0,2.5,0,3.7,0.1c0.8,0.1,1.6,0.4,2.4,0.6
		c0.2,0,0.3,0.1,0.4,0.2c0.6,1-4.4,0.7-4.8,0.7c-1.3,0.1-2.7,0.3-4,0.1c-0.4,0-2.2-0.8-2.2-0.7C370.7,30.3,371.4,30,372.3,29.8z
		 M381.1,55.9c-3.8,0.3-7.6,1.1-11.3,0.7c-0.6-0.1-1.1-0.2-1.6-0.5c-2.7-1.8,3.3-1.9,4.2-2c2.8-0.2,5.7-0.2,8.5,0
		c0.5,0,1,0.1,1.5,0.4c0.4,0.3,0.6,1,0.2,1.3C382.1,55.8,381.6,55.8,381.1,55.9z"/>
	<path class="st0" d="M362.4,30.5c0,0,0-0.1,0-0.2c-0.1-0.4-0.4-1.3-0.3-1.4c-1.1,1.5-0.5,5-0.5,6.8c-0.1,4.9,0,9.7,0.2,14.6
		c0,0.2,0.1,0.4,0.2,0.4c0.2,0,0.3-0.2,0.3-0.5c0.2-3,0-6,0-9.1c0-1.5,0.2-3,0.1-4.5c-0.1-1.4-0.4-2.8-0.4-4.2
		C362.1,31.8,362.3,31.2,362.4,30.5z"/>
	<path class="st0" d="M385.4,48.3c-0.2-0.1-0.5-0.2-0.7-0.2c-0.3-0.1-0.6-0.1-0.9-0.2c-0.7-0.2-1.2-0.6-2-0.2c0.2-0.1,1.7,0.3,2,0.4
		c1,0.3,2.1,1.2,2.5,2.2c0.1,0.3,0.2,0.5,0.3,0.8c0.1,0.2,0.4,0.4,0.7,0.4c0.3,0-0.4-1.8-0.5-1.9C386.4,49.1,385.9,48.5,385.4,48.3z
		"/>
	<path class="st0" d="M370.3,23c1.4,0,2.8,0,4.2-0.1c1.1,0,2.3-0.1,3.4-0.1c0.2,0,1.5,0,1.6-0.1c0.3-0.5-0.5-0.4-0.7-0.4
		c-2.4-0.1-4.9,0.2-7.3,0.2c-1.1,0-2.3,0.1-3.4,0.2c-0.4,0-0.7,0-1.1,0.1c-0.2,0-0.3,0.2-0.4,0.3C367.7,23.2,369.1,23,370.3,23z"/>
</g>
<g>
	<path class="st0" d="M55.7,30.3c-0.6-0.8-1.2-1.6-2-2.3c-1.5-1.4-3.3-2.6-5.3-3.1c-4-1-7.9-0.4-11.8,0.1c-1.4,0.2-1.6,0.7-1.6,2.1
		c3.3-0.7,6.8-0.9,10.2-0.7c0.4,0,0.8,0.1,0.9,0.4c0.2,0.4-0.1,0.9-0.5,1c-0.4,0.1-0.9,0-1.3-0.1c-2.7-0.6-5.6-0.6-8.3,0
		c-2.6,0.6-2.9,1.6-2.9,4c0.1,0.5,0.2,1,0.1,1.5c-0.5,6.8,0.8,13.7-0.8,20.5c-0.1,0.5,0.5,1.7,0.8,1.7c0.9,0,3,0.1,2.8-1.3
		c-0.1-0.9-0.8-1.5-0.8-2.5c0-1,0.4-1.9,0.6-2.8c0.5-2.5,1.3-3,3.9-2.9c2.2,0.1,4.4,0.1,6.7,0c6.3-0.4,10-6.4,7.8-12.3
		c-0.2-0.7-0.4-1.4-0.6-2c-0.6-1.6-2.8-2.8-4.3-3.2c0-0.4,0-0.8,0-1.1c0-0.7,4.2,2.2,4.5,2.5c1.4,1.3,2.5,2.5,3.1,4.5
		c0.4,1.6,0,3.4,0.4,5c0.8-1.2,0.8-3.6,0.4-5C57.1,32.7,56.5,31.5,55.7,30.3z M48.2,40.8C48.1,40.8,48.1,40.8,48.2,40.8
		c-2.3,1.7-4.2,1.4-6.9,1.4c-0.2,0-0.6-0.5-0.5-0.7c0.1-0.3,0.5-0.7,0.7-0.7c1.7-0.1,4.1,0.5,5.6-0.7c2.6-2,0.5-4.4-2.2-4.4
		c-1.4,0-2.8,0.1-4.3,0.1c-0.7,0-1.4,0-2,0.4c-1.3,0.8-0.9,3.2,0.1,4.1c0.3,0.3,0.9,0.1,1.1,0.5c0.2,0.3,0,0.7-0.4,0.9
		c-0.3,0.2-0.7,0.1-1.1,0.1c-0.4,0-2,0.6-2.2-0.2c-0.2-1.3-0.4-2.7-0.4-4c0-0.7,0.1-1.5,0.2-2.2c0.2-2.7,1.3-3.6,4-3.5
		c1.8,0.1,3.7,0.4,5.5,0.4c2.4,0,3.9,1.2,4.6,3.1C50.9,37.7,49.9,39.5,48.2,40.8z"/>
	<path class="st0" d="M30.9,32.1c-0.7,0-0.6,5.4-0.7,6.1c-0.1,1.6,0.3,3.3,0.2,4.9c0,0.1,0,0.2,0,0.4c-0.2,1.6-0.2,3.2-0.2,4.9
		c0,1.2,0,2.5,0.1,3.7c0,0.3,0.2,0.7,0.2,1c0.1-0.4,0.2-0.7,0.2-1.1c0-0.1,0-0.2,0-0.4c-0.2-3,0.3-6.1,0.4-9.1
		c0.1-1.5-0.1-3-0.2-4.5c-0.1-1.3,0.1-2.7,0.2-4C31.2,33.8,31.5,32,30.9,32.1z"/>
	<path class="st0" d="M42.1,48.4c-2.5,0.2-3,0.8-2.9,3.6c0,0.5,0,1,0,1.5c0,0.2,0.2,0.5,0.3,0.7c0.1-0.2,0.2-0.5,0.2-0.7
		c0.1-0.7,0.1-1.5,0.2-2.2c0.2-1.4,1-2.2,2.4-2.4c0.7-0.1,1.5-0.2,2.2-0.3C43.7,48.6,42.9,48.4,42.1,48.4z"/>
	<path class="st0" d="M56.9,39.4c-0.1,0.2-0.1,0.4-0.2,0.5c-0.1,0.5-0.3,1-0.5,1.5c-0.2,0.5-0.4,0.9-0.7,1.4
		c-0.2,0.4-0.5,0.6-0.8,0.8c-0.1,0.1-0.3,0.2-0.4,0.3c0,0-0.1,0.1-0.2,0.2c0,0,0,0.1,0,0.1c0.1-0.1,0.2-0.1,0.3-0.2
		c0.2-0.1,0.3-0.3,0.4-0.4c0.2-0.2,0.5-0.4,0.7-0.7c0.1-0.2,0.2-0.5,0.3-0.7c0.1-0.2,0.3-0.5,0.3-0.7c0.2-0.7,0.8-1.4,0.7-2.1
		C57.1,39.1,57,39.2,56.9,39.4z"/>
</g>
<g>
	<path class="st0" d="M168.7,40.5c-0.3,0-0.7,0.1-1.2,0.5c-0.5,0.4-0.4,2.9-1.1,2.9c1.3,0,2.5,0.1,3.8,0.1
		C170.5,43.9,170.1,40.7,168.7,40.5z"/>
	<path class="st0" d="M182.7,51.3c-1.8-1.4-3-3.1-4-5.1c-2-3.9-4-7.7-6-11.6c-1.2-2.3-2.6-4.4-2.9-7.1c-0.1-1.3-1.6-2.3-2.8-2.3
		c-1.4,0-2.3,1-2.7,2.3c-0.3,1.2-0.5,2.4-0.9,3.5c-2.8,6.8-5.8,13.5-8.7,20.2c-0.3,0.7-1,1.2-1.4,1.9c-0.4,0.6-0.9,1.5-0.7,2
		c0.3,0.6,1.2,1.3,1.8,1.3c0.6,0,1.5-0.7,1.8-1.3c0.6-0.9,0.7-2,1.2-3c0.7-1.4,1.8-2.3,3.6-2.3c4.4,0,8.8-0.1,13.2-0.2
		c1,0,1.8,0.3,2.3,1.3c0.8,1.4,1.6,2.9,2.7,4.1c1.1,1.2,3,1.1,4,0C184.2,53.8,184.1,52.3,182.7,51.3z M171.1,46.1
		c-0.4,0-0.8,0-1.2,0c-0.1,0-0.2,0-0.2-0.1c-1.3,0.1-2.6,0.1-4,0.1c-0.2,0-0.4,0-0.5,0.1c-0.4,0-0.8,0-1.2,0
		c-3.7,0.1-3.8-0.1-2.2-3.5c1.3-2.8,2.6-5.7,4-8.5c0.6-1.2,1.9-1.3,2.6-0.1c1.7,2.9,3.5,5.9,5,8.9C174.4,45.4,173.9,46,171.1,46.1z"
		/>
	<path class="st0" d="M185.9,50.8c-0.1,0.4-0.2,0.9-0.6,0.3c-0.5-0.8-1.1-1.5-1.5-2.4c-2.2-4.4-4.5-8.8-6.7-13.3c-1-2-1.9-4-2.8-6.1
		c-0.8-1.9-2.2-3.6-2.3-5.8c1.6-0.1,1.7,1.7,2.3,2.8c1.8,3.5,3.1,7.2,4.8,10.7c1.1,2.3,2.2,4.2,2.8,6.6c0.5,1.7,1.3,3.4,2.4,4.8
		c0.3,0.4,1.6,1.6,1.6,2C185.9,50.5,185.9,50.6,185.9,50.8z"/>
	<path class="st0" d="M151.5,48.1c0.6-1.9,1.1-3.7,2.1-5.3c1.1-1.7,2-3.3,2.7-5.2c1.7-4.5,3.2-8.3,6-12.2c-0.1,0.8-0.2,1.7-0.5,2.5
		c-3,6.3-6,12.5-9,18.8c-0.3,0.6-0.7,1.1-1.1,1.6L151.5,48.1z"/>
	<path class="st0" d="M151.6,48.2c-0.2,0.9-0.5,1.8-0.8,2.6c0,0.1-0.4,0.2-0.6,0.3c-0.1-0.2-0.2-0.5-0.2-0.7
		c0.4-0.8,0.9-1.5,1.3-2.3L151.6,48.2z"/>
	<path class="st0" d="M163.2,52.8c-0.8,0-1,0-1.3,0c-0.2,0-0.5-0.2-0.7-0.3c0.2-0.1,0.4-0.3,0.6-0.4c0.5-0.1,1.1-0.1,1.6-0.1
		c0.3,0,0.6,0.3,0.9,0.4c-0.2,0.1-0.5,0.2-0.8,0.2C163.2,52.8,163,52.8,163.2,52.8z"/>
	<path class="st0" d="M176.4,54.3c-0.1,0-0.3,0-0.4-0.1c-0.6-0.6-1.1-1.3-1.7-1.9c0.1-0.1,0.2-0.2,0.3-0.2
		C175.9,52.3,176.3,53.2,176.4,54.3L176.4,54.3z"/>
	<path class="st0" d="M159.9,54.6c0.1-0.2,0.2-0.4,0.3-0.6C160.1,54.2,160,54.4,159.9,54.6L159.9,54.6z"/>
	<path class="st0" d="M159.9,54.6c-0.1,0.2-0.2,0.3-0.4,0.5c0-0.1,0-0.2,0.1-0.3C159.7,54.7,159.8,54.7,159.9,54.6L159.9,54.6z"/>
</g>
<g>
	<path class="st0" d="M113.6,49.1c0.2,0.1,0.3,0.3,0.4,0.4c0.2,0.2,0.2,0.6,0,0.7c-0.3,0.1-0.5-0.1-0.7-0.4c-0.2-0.3-1-0.6-1.2-0.1
		c-0.2,0.7-0.1,1.8,0.3,2.4c0.7,0.9,1.8,1.9,0.8,2.9c-0.7,0.8-2.2,1.1-3.4,1.1c-5.2-0.1-10.4-0.4-15.6-0.7c-0.8,0-1.8,0.2-2.5-0.1
		c-0.6-0.3-1.5-1.3-1.4-1.7c1.5-5.5,0.5-11.2,0.6-16.8c0.1-3,0.5-6.1-0.7-9.2c-0.5-1.3,0.2-2.4,1.3-3.3c0.9-0.7,1.8-0.8,2.6,0
		c0.8,0.8,2.1,1.6,1.2,2.8c-1.9,2.4-1.4,5.1-1.4,7.7c-0.1,4.1,0,8.2,0,12.2c0,1-0.1,2,0.2,2.9c0.2,0.6,1.2,1.5,1.8,1.4
		c1.3-0.1,0.7-1.1,0.5-1.9c-0.2-0.6-0.3-1.6,0-1.9c1.8-1.6,1.3-3.6,1.4-5.5c0.1-2.6,0.2-5.1,0.4-7.7c0.1-1.3,0.1-2.6,0.2-3.9
		c0-0.9,0.5-2.6-0.1-3.4c-0.2-0.3-0.6-0.6-0.5-1c0-0.3,0.3-0.5,0.6-0.5c0.6,0,0.7,1,0.7,1.5c0,0.4,0,0.8,0,1.3c0,4.5,0,9,0.1,13.5
		c0.1,4.7,0.7,4.5,4.1,4.8c2,0.2,3.9,0.4,5.8,0.8C110.4,47.7,112.5,48.1,113.6,49.1z M104.9,49.6c-0.4-0.1-0.9-0.2-1.3-0.1
		c-1.2,0.2-2.7-0.7-3.7,0.7c1.3,0.4,2.5,1.1,3.8,1.3c1.5,0.2,3,0,4.6-0.2c0.3,0,0.6-0.6,0.7-0.9c0-0.2-0.5-0.6-0.8-0.7
		c-0.9-0.1-1.8,0-2.6,0C105.4,49.7,105.1,49.7,104.9,49.6z"/>
	<path class="st0" d="M88.4,41.3L88.4,41.3c0.2-1.9,0.4-3.8,0.5-5.7c0.1-2,0-3.9,0-5.9c0-0.4-0.1-0.8-0.2-1.2
		c-0.1,0.4-0.2,0.8-0.2,1.2c-0.2,2.2-0.4,4.4-0.5,6.6C88.1,38,88.2,39.6,88.4,41.3C88.4,41.3,88.4,41.3,88.4,41.3z"/>
	<path class="st0" d="M87.8,49.9c0,0.3,0.1,0.5,0.2,0.8c0.1-0.4,0.3-0.7,0.3-1.1c0-2.4,0-4.8,0-7.2C87.1,44.8,88,47.4,87.8,49.9z"/>
</g>
<g>
	<path class="st0" d="M303.1,32c0.2-0.2,1.1,0.6,1.3,0.8c3.5,3.1,2.1,2.8,5.8-0.2c2.4-1.9,4.6-4.2,7-6.1c1-0.8,2.4-1.2,3.6-1.6
		c0.9-0.3,1.6,0.1,2.1,0.8c0.2,0.3,0.4,0.7,0.5,1.1c0.1,0.5-0.1,1.1,0.1,1.6c0.5,1.1,0.3,1.9-0.4,2.7c-1.2,1.3-1.3,2.9-1.3,4.6
		c0,3.4-0.1,6.7,0,10.1c0.1,2.2,0.5,4.4,0.6,6.6c0,0.8-0.1,2-0.5,2.3c-0.7,0.4-2,0.4-2.7,0.1c-0.5-0.2-0.8-1.4-0.9-2.2
		c-0.1-1.2,0.2-2.5,0.3-3.7c0.2-4.1,0.4-8.2,0.5-12.3c0-1,0-2.2-0.3-3.1c-0.5,0.1-0.8,0.8-1.2,1.2c-0.4,0.5-0.9,0.8-1.3,1.3
		c-0.5,0.6-1.2,1.2-1.8,1.8c-1.5,1.5-3.1,3.1-4.6,4.6c-2.5,2.6-2.8,4.2-6.7,0c-1.8-1.9-3.6-3.8-5.4-5.6c-0.6-0.6-1.3-1.1-2-1.7
		c-0.9-0.7-1.6-0.7-1.9,0.5c-0.2,0.6-0.4,1.2-0.4,1.8c-0.1,4.2-0.2,8.5-0.2,12.7c0,0.9,0.4,1.7,0.4,2.5c0,0.5,0,1.4-0.3,1.6
		c-0.4,0.3-1.2,0.3-1.7,0.2c-0.9-0.3-0.7-1-0.7-1.8c0.2-6,0.6-11.9,0.2-17.9c-0.2-2.5-1.1-4.9,0.9-6.8c1.3-1.3,3.1-1.6,4.9-1.1
		c2.4,0.6-0.3,1.4-0.8,1.6c-0.8,0.5-1.5,0.8-1.3,2c0.3,2,4.7,5.1,6.2,6.4c0.7,0.6,1.5,1.1,2.3,1.6c0.4,0.2,1.8,1.5,2.2,1.1
		c0.1-0.1,0.2-0.3,0.2-0.4c0.1-0.7-0.1-1.5-0.4-2.1c-0.3-0.6-0.5-1.3-0.8-1.9c-0.3-0.6-0.8-1.2-1.1-1.8c-0.2-0.3-0.4-0.6-0.5-0.9
		C303.1,32.2,303.1,32.1,303.1,32z M310.3,36.2c3.4-1.7,5.7-4.7,8.1-7.5c0.3-0.3,0.2-1,0.3-1.6c-0.4,0.2-1,0.3-1.2,0.6
		c-2.5,2.7-5,5.4-7.6,8.1c-0.1,0.2-0.3,0.4-0.4,0.5C309.8,36.3,310.1,36.2,310.3,36.2z"/>
	<polygon class="st0" points="320.3,26.5 320.1,26.7 320.4,26.7 	"/>
	<path class="st0" d="M316.2,42.2c-0.5-0.3-1.3,0.4-1.7,0.6c-0.7,0.3-1.3,0.7-2,1.1c-0.5,0.3-0.7,0.9-1.1,1.2
		c-0.4,0.4-0.9,0.7-1.3,1.2c0.1-0.2,0.5-0.3,0.7-0.5c0.2-0.2,0.4-0.3,0.7-0.5c0.7-0.3,1.3-0.6,1.9-1c1.1-0.8,1.7-0.2,1.9,0.8
		c0.2,1.6,0.2,3.2,0.3,4.8c0,0.4,0.2,0.8,0.4,1.2c0.2-0.4,0.6-0.8,0.6-1.3c0.2-1.2,0.3-2.5,0.2-3.7c0-0.6-0.1-1.2-0.1-1.8
		c0-0.5,0-1.2-0.2-1.7C316.4,42.3,316.3,42.2,316.2,42.2z"/>
	<path class="st0" d="M325.9,42.3c-0.1,1.2-0.2,2.4-0.2,3.6c0,2,0,4,0,6c0,0.4-0.1,0.8-0.2,1.2c0-0.4-0.1-0.7-0.1-1.1
		c0-6.7,0-13.4,0-20.2c0-0.4,0.1-0.8,0.2-1.2c0.1,0.4,0.2,0.7,0.2,1.1c0.1,2,0.1,4,0.2,6c0,1,0,1.9,0,2.9
		C325.9,41.2,325.9,41.7,325.9,42.3z"/>
	<path class="st0" d="M289.1,32c-0.2,0.6-0.4,1.3-0.5,2c-0.1,2.9,0,5.7,0,8.6c0,2.6,0,5.2,0,7.9c0,0.5,0.1,1,0.2,1.5
		c0.1-0.5,0.2-0.9,0.2-1.4c0-3.7,0.1-7.5,0.1-11.2c0-2.4,0.8-4.9,0.2-7.3C289.1,31.9,289.1,32,289.1,32z"/>
	<path class="st0" d="M297.5,47.4c0-1.6,0-3.2,0.2-4.8c0.1-0.8,0.8-1.4,1.6-0.7c1.1,0.9,2.2,2,3.3,3c0.2,0.2,0.3,0.6,0.4,0.9
		c-0.3-0.1-0.6-0.2-0.9-0.3c-1-0.7-2.1-1.4-3.1-2.1c-0.6-0.4-0.9-0.2-0.9,0.5c-0.1,2.2-0.2,4.5-0.3,6.7c0,0.4-0.1,0.8-0.2,1.3
		c0-0.4-0.1-0.7-0.1-1.1C297.6,49.6,297.5,48.5,297.5,47.4z"/>
	<path class="st0" d="M300.4,29.2c-0.2-0.2-0.5-0.5-0.8-0.7l0,0C299.9,28.8,300.1,29,300.4,29.2L300.4,29.2z"/>
	<path class="st0" d="M300.3,29.3c0.2,0.2,0.5,0.5,0.8,0.8l0.1-0.1C300.9,29.7,300.7,29.4,300.3,29.3L300.3,29.3z"/>
	<path class="st0" d="M302.7,31.5c-0.2-0.2-0.5-0.5-0.7-0.7l-0.1,0.1C302.1,31,302.4,31.3,302.7,31.5L302.7,31.5z"/>
	<path class="st0" d="M301.1,30c0.3,0.3,0.5,0.5,0.8,0.8l0.1-0.1C301.7,30.5,301.4,30.2,301.1,30L301.1,30z"/>
</g>
</svg>
