<?xml version="1.0" encoding="utf-8"?>
<!-- Generator: Adobe Illustrator 28.0.0, SVG Export Plug-In . SVG Version: 6.00 Build 0)  -->
<svg version="1.1" id="Layer_1" xmlns="http://www.w3.org/2000/svg" xmlns:xlink="http://www.w3.org/1999/xlink" x="0px" y="0px"
	 viewBox="0 0 245.9 146.2" style="enable-background:new 0 0 245.9 146.2;" xml:space="preserve">
<style type="text/css">
	.st0{opacity:0.8;fill:#F29220;enable-background:new    ;}
	.st1{opacity:0.8;fill:#034254;enable-background:new    ;}
</style>
<polygon class="st0" points="224.7,0 0,88.6 0.1,88.7 1.2,89.3 1.2,90.5 1.3,91.5 0.7,92.9 1.4,93.7 1.9,94.6 1.1,96.1 1.3,97.1 
	3.1,97.5 4,98.3 4.7,99.1 4.7,100.2 4.1,101.5 3.2,103 5.3,103.3 4.6,104.7 6.9,104.9 6.9,106 6.6,107.2 8.7,107.5 9,108.5 
	6.8,110.5 8.6,110.8 9.7,111.5 10.5,112.3 10.5,113.4 10.2,114.7 9.5,116 9.6,117.1 11.4,117.5 9.7,119.2 11.2,119.8 10.7,121 
	12.1,121.6 13.6,122.1 12.2,123.8 13.1,124.6 12.5,126 15.4,125.9 13.3,127.9 16.3,127.9 14.8,129.6 16.8,129.9 16.4,131.2 
	15,132.9 18.1,132.8 16.4,134.6 19.1,134.6 16.5,136.8 17.2,137.7 20.2,137.6 18.5,139.4 19,140.3 19.3,141.3 20.1,142.1 20.9,143 
	20.5,144.2 21.5,145 21,146.2 245,57.9 244.7,58 245.9,55.4 245.6,54.4 244.3,54.2 243,54.1 241.7,53.7 242.5,52 240.8,51.8 
	240.8,50.6 239.8,49.9 239.8,48.7 238.3,48.4 237.5,47.6 238.6,45.8 239.2,44.2 238.4,43.5 236,43.7 235.7,42.6 236.6,40.9 
	235.3,40.4 234,40 235.1,38.1 234,37.6 231.5,37.8 232.1,36.3 231.8,35.2 231.9,34 232.3,32.5 229.2,33.1 230.6,31.1 229.4,30.6 
	227.9,30.3 228.2,28.9 227.4,28.2 226.4,27.5 228.3,25.2 227.3,24.6 226.1,24.1 225,23.5 224,22.4 224.3,21.3 223.9,20.3 
	226.3,19.1 224.6,18.2 226,17 226.4,15.9 224.8,15 224,14 224,12.9 224.3,11.9 222.7,10.9 224.2,9.8 224.2,8.7 225.6,7.6 222.4,6.7 
	222.9,5.6 223.9,4.5 222.9,3.5 225.3,2.3 223.7,1.4 225.6,0.2 "/>
<polygon class="st1" points="178.9,142.4 179.8,141.2 181.9,140.8 182.5,139.2 182.4,137.2 184.5,136.8 184.7,135 184,132.4 
	185.6,131.7 186,130 187.7,129.3 188.9,128.2 190.6,127.6 191.6,126.3 193,125.4 194.4,124.5 193.5,121.8 196.9,122.4 195.2,119.2 
	198.3,119.6 199.9,118.8 200.5,117.3 201.9,116.3 202.9,115.2 203.1,113.3 202.2,110.6 204.2,110.2 204.8,108.6 207.2,108.5 
	205.4,105.2 208.7,105.7 207.8,103.1 208.4,101.5 212.4,102.6 209.4,98.3 211.1,97.6 214.2,98 214.3,97.5 91,3.4 89.9,3.1 88.5,4 
	90.7,7.7 89.4,8.7 86.2,8.2 87.9,11.5 87.2,13 83.3,12 84.7,15 81.6,14.6 82,17 82,18.9 78.9,18.5 77.3,19.3 78.9,22.5 76.1,22.4 
	76.3,24.5 75.8,26 75.7,28 75.3,29.7 70.1,27.7 69.2,29 71,32.3 71.4,34.6 70.4,35.8 67.1,35.3 66,36.5 67.7,39.7 66,40.4 
	62.1,39.4 60.8,40.4 61.8,43.2 61,44.5 58.1,44.3 56.8,45.3 59.6,49.4 57.6,49.8 57,51.4 56.1,52.6 177.5,145.3 179.5,144.9 "/>
</svg>
