<?xml version="1.0" encoding="utf-8"?>
<!-- Generator: Adobe Illustrator 28.0.0, SVG Export Plug-In . SVG Version: 6.00 Build 0)  -->
<svg version="1.1" id="Layer_1" xmlns="http://www.w3.org/2000/svg" xmlns:xlink="http://www.w3.org/1999/xlink" x="0px" y="0px"
	 viewBox="0 0 162 130.5" style="enable-background:new 0 0 162 130.5;" xml:space="preserve">
<style type="text/css">
	.st0{opacity:0.8;fill:#666666;enable-background:new    ;}
</style>
<polygon class="st0" points="159.7,55.4 158.7,54 158.8,51.8 157.4,50.6 155.3,49.9 155.5,47.6 153.7,46.8 151,46.5 150.6,44.6 
	149.1,43.6 148.8,41.6 148,40 142.6,41.1 138.3,40.9 137.7,39.1 137.2,37.3 134.3,37.2 135.7,34.1 132.1,34.5 133.2,31.6 
	132.8,29.7 134.7,27.3 134.1,25.6 133.2,24.1 131.4,23.2 128.5,23.1 128.6,20.9 127.2,19.7 132.9,14.2 129,14.7 130.4,11.6 
	127.6,11.4 126.2,10.3 128.2,6.7 123.2,8.1 122.9,6.1 124.1,3.1 123.6,2.9 0.7,89.7 0.2,90.8 2.2,90.6 4.9,91.7 5.5,93.4 10.5,92.3 
	14.3,91.8 15.5,93.1 13.6,96.5 17,96.3 15.8,99.3 18.3,99.7 20.2,100.5 19,103.5 19.5,105.3 23,105 22.2,107.7 24.3,108.3 
	28.5,106.5 30.4,107.3 32,108.4 28.8,112.8 31.1,112.5 33.6,113.7 35.9,114.2 36.9,115.7 35.6,118.7 34.5,121.1 40.1,119.9 
	45.6,120.5 50.1,117.8 50.8,119.5 53.8,119.6 54.9,120.9 54,123.7 54.7,125.4 59.4,124.2 59.4,126.4 60.8,127.5 61.8,128.9 
	162.2,58 162.3,55.8 "/>
</svg>
